<?xml version="1.0" encoding="UTF-8"?>
<svg id="Calque_2" data-name="Calque 2" xmlns="http://www.w3.org/2000/svg" viewBox="0 0 338.96 99.79">
  <defs>
    <style>
      .cls-1 {
        fill: #1d1d1b;
        stroke-width: 0px;
      }
    </style>
  </defs>
  <g id="Calque_1-2" data-name="Calque 1">
    <g>
      <g>
        <path class="cls-1" d="M65.94,80.11c8.42,0,17.3-1.92,23.19-3.48l.88,4.62c-6.66,1.92-15.96,3.6-24.17,3.6-16.94,0-24.48-6.66-24.48-21.12s7.54-21.06,24.48-21.06c8.21,0,17.51,1.68,24.17,3.6l-.88,4.62c-5.89-1.56-14.77-3.48-23.19-3.48-15.03,0-19.94,5.34-19.94,16.32s4.91,16.38,19.94,16.38Z"/>
        <path class="cls-1" d="M95.38,43.27h33.68c8.57,0,13.07,3.84,13.07,12.72s-4.49,13.2-13.07,13.2h-29.03v15h-4.65v-40.92ZM100.03,47.95v16.5h28.77c5.99,0,8.52-2.34,8.52-8.22s-2.53-8.28-8.52-8.28h-28.77Z"/>
        <path class="cls-1" d="M170.02,84.85c-7.8,0-17.56-1.26-23.55-2.76l.72-4.5c6.35,1.56,16.22,2.82,23.76,2.82,13.58,0,16.12-1.98,16.12-6.9,0-5.28-2.63-6.12-7.8-6.84l-20.3-2.28c-8.32-.84-13.02-3.06-13.02-10.56,0-8.1,5.42-11.22,21.18-11.22,6.92,0,16.68,1.14,22.88,2.64l-.78,4.32c-5.94-1.38-15.96-2.52-22.93-2.52-13.27,0-15.91,1.8-15.91,6.66s3,5.52,8.37,6.18l19.68,2.22c8.06.84,13.12,2.82,13.12,11.52,0,8.04-4.75,11.22-21.54,11.22Z"/>
        <path class="cls-1" d="M238.26,74.29h-33.06l-6.04,9.9h-5.58l25.1-40.92h6.09l25.15,40.92h-5.63l-6.04-9.9ZM235.83,70.27l-14.1-23.22-14.1,23.22h28.2Z"/>
      </g>
      <g>
        <path class="cls-1" d="M273.85,57.47c-4.32,0-9.27.7-12.97,1.42l-.85-4.25c3.87-.85,8.8-1.5,12.92-1.5,7.5,0,10.92,1.52,10.92,5.35,0,3.45-2.35,4.82-7.22,6.15l-6.35,1.92c2.08-.12,4.32-.2,6.17-.2h7.5v4.17h-23.37v-4.65l15.82-4.55c1.65-.58,2.37-.98,2.37-2,0-1.47-1.57-1.88-4.95-1.88Z"/>
        <path class="cls-1" d="M311.97,57.92c0,1.92-1.03,3.15-2.62,3.87,1.92.75,3.02,2,3.02,4.02,0,3.55-3.22,5.07-12.65,5.07s-12.62-1.52-12.62-5.07c0-2.02,1.02-3.27,3.05-4-1.67-.75-2.67-1.97-2.67-3.9,0-2.72,2.72-4.77,12.25-4.77s12.25,2.05,12.25,4.77ZM307.47,64.91c0-1.32-1.45-1.62-7.75-1.62s-7.75.3-7.75,1.62,1.35,1.62,7.75,1.62,7.75-.3,7.75-1.62ZM292.38,58.87c0,1.15,1.2,1.52,7.35,1.52s7.35-.38,7.35-1.52-1.2-1.58-7.35-1.58-7.35.48-7.35,1.58Z"/>
      </g>
      <polygon class="cls-1" points="50.34 46.05 52.46 37.2 54.63 47.51 62.21 47.68 56.79 52.98 62.25 62 54.66 56.99 52.53 65.83 50.36 55.52 42.78 55.35 48.2 50.05 42.74 41.04 50.34 46.05"/>
      <polygon class="cls-1" points="228.22 49.58 230.34 40.73 232.51 51.04 240.1 51.21 234.67 56.51 240.13 65.52 232.54 60.51 230.42 69.36 228.24 59.05 220.66 58.88 226.09 53.58 220.63 44.57 228.22 49.58"/>
      <path class="cls-1" d="M0,71.86c8.41-17.02,23.71-29.48,39.62-39.15C87.01,5.52,147.43-5.2,201.46,2.36c0,0,3.09.47,3.09.47l.62,3.12c3.28,16.63,9.8,21.97,23.35,26.34,18.64,2.06,45.21,3.91,63.38,7.91,15.65,3.24,31.68,10.06,40.35,24.2,2.88,4.51,5.04,9.42,6.7,14.46-1.87-4.97-4.25-9.75-7.28-14.07-15.96-22.74-46.68-23.01-71.81-25.1-.2-.01-31.8-1.82-31.97-1.83-7.4-1.66-15.33-3.8-21.16-9.36-5.9-5.47-8.94-13.24-10.4-20.85,0,0,3.72,3.59,3.72,3.59C142.56,1.41,35.43,19.81,3.92,73.87c0,0-3.92-2.01-3.92-2.01h0Z"/>
    </g>
  </g>
</svg>