<?xml version="1.0" encoding="UTF-8"?>
<svg id="Calque_2" data-name="Calque 2" xmlns="http://www.w3.org/2000/svg" viewBox="0 0 70.35 70.35">
  <defs>
    <style>
      .cls-1 {
        fill: #ededed;
      }

      .cls-1, .cls-2, .cls-3 {
        stroke-width: 0px;
      }

      .cls-2 {
        fill: #1d1d1b;
      }

      .cls-3 {
        fill: #db202c;
      }
    </style>
  </defs>
  <g id="Calque_1-2" data-name="Calque 1">
    <rect class="cls-1" width="70.35" height="70.35"/>
    <g>
      <g>
        <path class="cls-2" d="M21.01,37.12c-4.05,0-7.82.52-10.82,1.05l-.3-1.95c3.2-.6,7.52-1.07,10.82-1.07,7.35,0,11.17,1.3,11.17,5.27,0,3.25-2.5,4.37-6.52,5.85l-11.47,4.52c1.92-.15,4.5-.25,6.4-.25h11.65v1.95H9.78v-1.97l15.9-6.07c2.72-1.15,3.95-1.9,3.95-3.72,0-2.92-3.15-3.6-8.62-3.6Z"/>
        <path class="cls-2" d="M59.03,39.64c0,2.05-1.37,3.37-4.25,4.02,3.22.6,4.67,1.83,4.67,4.25,0,3.37-2.95,4.85-11.87,4.85s-11.85-1.48-11.85-4.85c0-2.42,1.4-3.65,4.7-4.22-2.92-.67-4.3-2-4.3-4.05,0-2.77,2.7-4.5,11.45-4.5s11.45,1.72,11.45,4.5ZM57.25,47.59c0-2.58-2.55-3.17-9.67-3.17s-9.67.6-9.67,3.17,2.7,3.22,9.67,3.22,9.67-.7,9.67-3.22ZM38.33,39.97c0,2.1,2.37,3,9.25,3s9.27-.9,9.27-3-2.37-2.92-9.27-2.92-9.25.9-9.25,2.92Z"/>
      </g>
      <g>
        <path class="cls-2" d="M19.41,30.21c1.63,0,3.35-.32,4.49-.58l.17.77c-1.29.32-3.09.6-4.68.6-3.28,0-4.74-1.11-4.74-3.52s1.46-3.51,4.74-3.51c1.59,0,3.39.28,4.68.6l-.17.77c-1.14-.26-2.86-.58-4.49-.58-2.91,0-3.86.89-3.86,2.72s.95,2.73,3.86,2.73Z"/>
        <path class="cls-2" d="M25.34,24.07h6.52c1.66,0,2.53.64,2.53,2.12s-.87,2.2-2.53,2.2h-5.62v2.5h-.9v-6.82ZM26.24,24.85v2.75h5.57c1.16,0,1.65-.39,1.65-1.37s-.49-1.38-1.65-1.38h-5.57Z"/>
        <path class="cls-2" d="M40,31c-1.51,0-3.4-.21-4.56-.46l.14-.75c1.23.26,3.14.47,4.6.47,2.63,0,3.12-.33,3.12-1.15,0-.88-.51-1.02-1.51-1.14l-3.93-.38c-1.61-.14-2.52-.51-2.52-1.76,0-1.35,1.05-1.87,4.1-1.87,1.34,0,3.23.19,4.43.44l-.15.72c-1.15-.23-3.09-.42-4.44-.42-2.57,0-3.08.3-3.08,1.11s.58.92,1.62,1.03l3.81.37c1.56.14,2.54.47,2.54,1.92,0,1.34-.92,1.87-4.17,1.87Z"/>
        <path class="cls-2" d="M53.43,29.24h-6.4l-1.17,1.65h-1.08l4.86-6.82h1.18l4.87,6.82h-1.09l-1.17-1.65ZM52.96,28.57l-2.73-3.87-2.73,3.87h5.46Z"/>
      </g>
      <path class="cls-3" d="M1.79,28.64C7.55,14.48,27.89,8.18,41.97,11.15c.48,3.67,1.33,6.25,4.57,7.43,9.04,1.39,19.2.64,21.56,11.77-2.86-10.88-12.69-9.55-21.69-10.53-3.87-.79-5.86-3.99-6.3-7.67,0,0,.79.83.79.83-13.09-2.63-32.35,3.15-38.19,16.02,0,0-.91-.36-.91-.36h0Z"/>
    </g>
  </g>
</svg>