<svg width="94" height="94" viewBox="0 0 94 94" fill="none" xmlns="http://www.w3.org/2000/svg">
<path d="M49.581 86.1666H70.5C72.5775 86.1666 74.5699 85.3413 76.039 83.8723C77.508 82.4033 78.3333 80.4108 78.3333 78.3333V31.3333C78.3363 30.0921 78.0936 28.8627 77.619 27.7158C77.1444 26.569 76.4473 25.5275 75.5681 24.6514L61.5151 10.5984C60.6391 9.71923 59.5976 9.02222 58.4508 8.54762C57.3039 8.07302 56.0744 7.83024 54.8333 7.83328H23.5C21.4224 7.83328 19.43 8.65858 17.961 10.1276C16.4919 11.5966 15.6666 13.5891 15.6666 15.6666V52.2483" stroke="white" stroke-width="7.83333" stroke-linecap="round" stroke-linejoin="round"/>
<path d="M54.8333 7.83325V27.4166C54.8333 28.4554 55.246 29.4516 55.9805 30.1861C56.715 30.9206 57.7112 31.3333 58.75 31.3333H78.3333M40.6471 49.4361C42.2068 47.8779 44.3216 47.0032 46.5263 47.0043C48.7309 47.0054 50.8449 47.8823 52.403 49.442C53.9612 51.0017 54.8359 53.1165 54.8348 55.3211C54.8337 57.5258 53.9568 59.6397 52.3971 61.1978L32.7433 80.8282C31.8126 81.7594 30.6622 82.441 29.3985 82.81L18.1694 86.0883C17.8324 86.1866 17.4751 86.1924 17.135 86.1053C16.7949 86.0182 16.4845 85.8412 16.2363 85.593C15.9881 85.3448 15.8111 85.0344 15.724 84.6943C15.6369 84.3542 15.6428 83.9969 15.7411 83.6599L19.0154 72.423C19.385 71.1606 20.0666 70.0117 20.9972 69.0821L40.6471 49.4361Z" stroke="white" stroke-width="7.83333" stroke-linecap="round" stroke-linejoin="round"/>
</svg>
