<svg width="94" height="94" viewBox="0 0 94 94" fill="none" xmlns="http://www.w3.org/2000/svg">
<path d="M54.1753 64.8913C54.9842 65.2627 55.8956 65.3476 56.7591 65.1319C57.6227 64.9162 58.3871 64.4127 58.9263 63.7045L60.3167 61.8833C61.0463 60.9104 61.9925 60.1208 63.0802 59.5769C64.1679 59.0331 65.3673 58.7499 66.5833 58.7499H78.3333C80.4109 58.7499 82.4033 59.5752 83.8723 61.0443C85.3414 62.5133 86.1667 64.5057 86.1667 66.5833V78.3333C86.1667 80.4108 85.3414 82.4032 83.8723 83.8723C82.4033 85.3413 80.4109 86.1666 78.3333 86.1666C59.6356 86.1666 41.7036 78.7389 28.4823 65.5176C15.261 52.2963 7.83334 34.3643 7.83334 15.6666C7.83334 13.5891 8.65864 11.5966 10.1277 10.1276C11.5967 8.65855 13.5891 7.83325 15.6667 7.83325H27.4167C29.4942 7.83325 31.4866 8.65855 32.9557 10.1276C34.4247 11.5966 35.25 13.5891 35.25 15.6666V27.4166C35.25 28.6327 34.9669 29.8321 34.423 30.9198C33.8792 32.0075 33.0895 32.9536 32.1167 33.6833L30.2837 35.058C29.5646 35.607 29.0578 36.388 28.8494 37.2684C28.6409 38.1487 28.7436 39.0741 29.14 39.8873C34.4928 50.7594 43.2965 59.552 54.1753 64.8913Z" stroke="white" stroke-width="7.83333" stroke-linecap="round" stroke-linejoin="round"/>
</svg>
