<svg width="79" height="79" viewBox="0 0 79 79" fill="none" xmlns="http://www.w3.org/2000/svg">
<path d="M22.7167 0H55.6167C68.15 0 78.3333 10.1833 78.3333 22.7167V55.6167C78.3333 61.6415 75.94 67.4196 71.6798 71.6798C67.4196 75.94 61.6415 78.3333 55.6167 78.3333H22.7167C10.1833 78.3333 0 68.15 0 55.6167V22.7167C0 16.6918 2.39336 10.9138 6.65356 6.65356C10.9138 2.39336 16.6918 0 22.7167 0ZM21.9333 7.83333C18.1938 7.83333 14.6074 9.31887 11.9631 11.9631C9.31887 14.6074 7.83333 18.1938 7.83333 21.9333V56.4C7.83333 64.1942 14.1392 70.5 21.9333 70.5H56.4C60.1396 70.5 63.7259 69.0145 66.3702 66.3702C69.0145 63.7259 70.5 60.1396 70.5 56.4V21.9333C70.5 14.1392 64.1942 7.83333 56.4 7.83333H21.9333ZM59.7292 13.7083C61.0276 13.7083 62.2729 14.2241 63.191 15.1423C64.1092 16.0604 64.625 17.3057 64.625 18.6042C64.625 19.9026 64.1092 21.1479 63.191 22.066C62.2729 22.9842 61.0276 23.5 59.7292 23.5C58.4307 23.5 57.1854 22.9842 56.2673 22.066C55.3491 21.1479 54.8333 19.9026 54.8333 18.6042C54.8333 17.3057 55.3491 16.0604 56.2673 15.1423C57.1854 14.2241 58.4307 13.7083 59.7292 13.7083ZM39.1667 19.5833C44.3605 19.5833 49.3416 21.6466 53.0142 25.3192C56.6868 28.9917 58.75 33.9728 58.75 39.1667C58.75 44.3605 56.6868 49.3416 53.0142 53.0142C49.3416 56.6868 44.3605 58.75 39.1667 58.75C33.9728 58.75 28.9917 56.6868 25.3192 53.0142C21.6466 49.3416 19.5833 44.3605 19.5833 39.1667C19.5833 33.9728 21.6466 28.9917 25.3192 25.3192C28.9917 21.6466 33.9728 19.5833 39.1667 19.5833ZM39.1667 27.4167C36.0504 27.4167 33.0617 28.6546 30.8582 30.8582C28.6546 33.0617 27.4167 36.0504 27.4167 39.1667C27.4167 42.283 28.6546 45.2716 30.8582 47.4752C33.0617 49.6787 36.0504 50.9167 39.1667 50.9167C42.283 50.9167 45.2716 49.6787 47.4752 47.4752C49.6787 45.2716 50.9167 42.283 50.9167 39.1667C50.9167 36.0504 49.6787 33.0617 47.4752 30.8582C45.2716 28.6546 42.283 27.4167 39.1667 27.4167Z" fill="white"/>
</svg>
