<svg width="36" height="36" viewBox="0 0 36 36" fill="none" xmlns="http://www.w3.org/2000/svg">
<path d="M12.531 11.5223C12.6991 10.8274 13.3268 10.3118 14.0778 10.3118C14.8512 10.3118 15.5013 10.861 15.647 11.6007C15.6555 11.6389 15.6552 11.6786 15.6461 11.7167C15.637 11.7547 15.6194 11.7902 15.5946 11.8205C15.5697 11.8507 15.5383 11.8749 15.5027 11.8912C15.4671 11.9075 15.4283 11.9155 15.3892 11.9146H15.2995C15.3219 11.8249 15.3331 11.7352 15.3331 11.6456C15.3331 11.0852 14.8848 10.6256 14.3132 10.6256C14.1563 10.6259 14.0016 10.6623 13.861 10.7319C13.7204 10.8015 13.5977 10.9025 13.5024 11.0271C13.407 11.1516 13.3416 11.2965 13.3112 11.4504C13.2807 11.6043 13.2861 11.7631 13.3268 11.9146H12.8336C12.6319 11.9146 12.475 11.7128 12.531 11.5223ZM21.1055 11.5223C20.9374 10.8274 20.3097 10.3118 19.5587 10.3118C18.7741 10.3118 18.1353 10.861 17.9895 11.6007C17.9559 11.7689 18.0792 11.9146 18.2473 11.9146H18.337C18.315 11.8266 18.3037 11.7363 18.3034 11.6456C18.3019 11.5112 18.3272 11.3779 18.378 11.2535C18.4287 11.1291 18.5038 11.016 18.5988 10.921C18.6938 10.826 18.8068 10.7509 18.9313 10.7002C19.0557 10.6495 19.189 10.6241 19.3234 10.6256C19.4802 10.6259 19.6349 10.6623 19.7755 10.7319C19.9161 10.8015 20.0388 10.9025 20.1341 11.0271C20.2295 11.1516 20.2949 11.2965 20.3253 11.4504C20.3558 11.6043 20.3504 11.7631 20.3097 11.9146H20.8029C21.0046 11.9146 21.1503 11.724 21.1055 11.5223Z" fill="white"/>
<path d="M14.8961 11.6344C14.8961 11.3093 14.6383 11.0515 14.3133 11.0515C14.2347 11.0503 14.1568 11.0656 14.0846 11.0964C14.1119 11.1205 14.1313 11.1523 14.1401 11.1877C14.1488 11.2231 14.1466 11.2603 14.1337 11.2944C14.1208 11.3285 14.0978 11.3578 14.0678 11.3785C14.0378 11.3992 14.0022 11.4103 13.9658 11.4102C13.9359 11.4102 13.9065 11.4026 13.8803 11.3884C13.8541 11.3741 13.8318 11.3535 13.8156 11.3284C13.7631 11.4145 13.7339 11.5127 13.7308 11.6135C13.7276 11.7143 13.7507 11.8142 13.7977 11.9034H14.8288C14.8737 11.8249 14.8961 11.7353 14.8961 11.6344ZM19.1105 11.0908C19.2212 11.0449 19.3434 11.0345 19.4602 11.061C19.577 11.0875 19.6828 11.1497 19.7627 11.2389C19.8427 11.3281 19.893 11.44 19.9067 11.559C19.9204 11.678 19.8967 11.7984 19.839 11.9034H18.8079C18.7589 11.8109 18.7358 11.7069 18.741 11.6024C18.7461 11.4978 18.7793 11.3966 18.837 11.3093C18.8488 11.3335 18.8659 11.3546 18.887 11.3713C18.9081 11.3879 18.9326 11.3996 18.9588 11.4055C18.985 11.4114 19.0122 11.4113 19.0384 11.4053C19.0646 11.3992 19.0891 11.3874 19.1101 11.3706C19.131 11.3538 19.148 11.3326 19.1596 11.3084C19.1713 11.2842 19.1774 11.2577 19.1774 11.2308C19.1775 11.2039 19.1715 11.1774 19.1599 11.1532C19.1483 11.1289 19.1314 11.1076 19.1105 11.0908ZM15.8712 13.4726L16.4653 11.5559C16.5998 11.13 17.1938 11.13 17.3171 11.5559L17.9112 13.4726C18.0345 13.8649 17.7431 14.2684 17.3283 14.2684H16.4541C16.0394 14.2684 15.7479 13.8649 15.8712 13.4726ZM16.8128 15.3332C16.2075 15.3332 15.6359 15.1875 15.1539 14.9297C14.9858 14.84 14.8176 15.0306 14.9185 15.1875C15.322 15.8039 16.017 16.2187 16.8128 16.2187C17.6086 16.2187 18.3035 15.8039 18.707 15.1875C18.8079 15.0306 18.6285 14.8512 18.4716 14.9297C17.9896 15.1875 17.4292 15.3332 16.8128 15.3332Z" fill="white"/>
<path d="M30.82 28.5895C30.8237 28.6231 30.8249 28.6571 30.8234 28.6915V32.6279C30.8234 33.0352 30.6616 33.4257 30.3736 33.7137C30.0856 34.0017 29.6951 34.1635 29.2878 34.1635H29.2811C29.2323 34.1777 29.1817 34.1853 29.1309 34.1859H4.4834C4.33477 34.1859 4.19222 34.1268 4.08712 34.0217C3.98202 33.9166 3.92298 33.7741 3.92298 33.6255V29.7025C3.91212 27.2367 4.61312 24.8201 5.94182 22.7428C7.27052 20.6656 9.17047 19.0159 11.4136 17.9919C11.3609 17.9187 11.3105 17.8439 11.2623 17.7677C10.6789 17.544 10.1758 17.1507 9.81803 16.6385C9.46022 16.1263 9.26407 15.5186 9.25486 14.8938V14.0935C8.96066 13.8391 8.73084 13.5186 8.58416 13.1584C8.43749 12.7981 8.37812 12.4082 8.41091 12.0206C8.4437 11.6331 8.56772 11.2587 8.77284 10.9282C8.97795 10.5977 9.25835 10.3204 9.59111 10.119V8.71906C9.40413 7.84162 9.40504 6.93454 9.59378 6.05748C9.78252 5.18042 10.1548 4.35326 10.6862 3.63041C11.3089 2.9682 12.0691 2.4505 12.9134 2.11375C13.7577 1.777 14.6656 1.62937 15.5731 1.68125H18.0984C19.0073 1.6288 19.9166 1.77614 20.7625 2.11289C21.6083 2.44964 22.3701 2.96762 22.9942 3.63041C23.5312 4.36829 23.9056 5.21162 24.0929 6.1048C24.2801 6.99797 24.2758 7.92069 24.0803 8.81209V10.1257C24.4087 10.327 24.6854 10.6023 24.8882 10.9298C25.091 11.2572 25.2143 11.6276 25.2482 12.0112C25.282 12.3949 25.2256 12.7811 25.0833 13.139C24.9411 13.4969 24.7169 13.8165 24.4289 14.0722V14.8938C24.4281 15.4793 24.2599 16.0524 23.9441 16.5455C23.6284 17.0386 23.1782 17.4311 22.6468 17.6769C22.5661 17.8136 22.4783 17.9463 22.3834 18.0748C22.9558 18.355 23.5038 18.6748 24.0277 19.0342C23.8461 19.375 23.7161 19.7404 23.6421 20.1203L23.6331 20.1136C23.5875 20.3475 23.5633 20.5866 23.5603 20.831C23.5556 21.3467 23.6533 21.8582 23.8476 22.3359C24.0419 22.8136 24.329 23.248 24.6923 23.614V27.4832C24.9093 27.3118 25.1705 27.2057 25.4455 27.1772C25.4923 27.1647 25.5406 27.1583 25.589 27.1582H26.3736V23.6342C26.3736 23.5221 26.3063 23.41 26.2055 23.354C25.7866 23.1385 25.4285 22.8212 25.1641 22.4313C24.8998 22.0414 24.7375 21.5913 24.6923 21.1224V20.618C24.7328 20.1581 24.8872 19.7155 25.1416 19.3301C25.396 18.9448 25.7424 18.629 26.1494 18.4111C26.3624 18.299 26.6314 18.4559 26.6314 18.7025V20.451C26.6314 20.9105 26.9901 21.2804 27.4496 21.2916C27.9204 21.3028 28.3015 20.9105 28.3015 20.4398V18.7025C28.3015 18.4559 28.5705 18.3102 28.7834 18.4223C29.6577 18.893 30.2517 19.8233 30.2629 20.8657C30.2629 21.9305 29.6689 22.8608 28.7834 23.3316C28.6825 23.3876 28.6153 23.4997 28.6153 23.6118V24.8279C28.7789 24.7741 28.9508 24.7468 29.1309 24.7461C30.0567 24.7461 30.8122 25.5015 30.8122 26.4274V28.5065L30.82 28.5895ZM22.3722 19.329C22.2025 19.2371 22.0307 19.1501 21.8566 19.0679V23.6275C21.8566 24.5993 20.7716 25.153 19.987 24.6026L19.9646 24.5858L16.9114 21.9485C16.8839 21.9249 16.8489 21.9119 16.8127 21.9119C16.7766 21.9119 16.7416 21.9249 16.7141 21.9485L13.6609 24.5858L13.6385 24.6015C13.4606 24.727 13.2516 24.8012 13.0343 24.8158C12.817 24.8304 12.6 24.7849 12.4069 24.6843C12.2138 24.5837 12.0521 24.4319 11.9395 24.2454C11.827 24.059 11.768 23.8452 11.7689 23.6275V19.0634C11.606 19.1403 11.4454 19.2203 11.287 19.3032V25.32C11.287 25.5778 11.4887 25.7795 11.7465 25.7795H21.9126C22.1704 25.7795 22.3722 25.5778 22.3722 25.32V19.329ZM8.9668 20.9117C7.72688 22.0149 6.73584 23.3694 6.05948 24.885C5.38311 26.4006 5.0369 28.0428 5.04383 29.7025V33.065H8.9668V20.9117ZM29.6913 27.11V26.4274C29.6913 26.1203 29.438 25.8669 29.1309 25.8669C29.0208 25.8671 28.9131 25.8998 28.8214 25.9608C28.7297 26.0218 28.658 26.1084 28.6153 26.2099V27.1111L29.6913 27.11ZM25.589 33.0426H29.2878C29.3978 33.0426 29.5033 32.9989 29.5811 32.9212C29.6588 32.8434 29.7025 32.7379 29.7025 32.6279V28.696L29.6947 28.613C29.676 28.5189 29.6252 28.4341 29.551 28.3732C29.4768 28.3123 29.3838 28.279 29.2878 28.279H25.7011C25.6642 28.2865 25.6266 28.2903 25.589 28.2902C25.413 28.2902 25.2897 28.427 25.2864 28.5615V28.5693C25.2857 28.6174 25.2975 28.6648 25.3204 28.707C25.3434 28.7492 25.3768 28.7847 25.4175 28.8103C25.4947 28.8617 25.558 28.9315 25.6016 29.0134C25.6452 29.0953 25.6678 29.1867 25.6673 29.2795C25.6669 29.3722 25.6434 29.4634 25.599 29.5449C25.5546 29.6264 25.4907 29.6955 25.413 29.7462C25.3754 29.7708 25.3442 29.8042 25.3222 29.8434C25.3001 29.8826 25.2878 29.9265 25.2864 29.9715C25.2864 30.0724 25.3346 30.1475 25.4018 30.1901C25.482 30.2397 25.5484 30.3088 25.5949 30.391C25.6413 30.4731 25.6662 30.5656 25.6673 30.66C25.6684 30.7543 25.6457 30.8474 25.6013 30.9306C25.5568 31.0139 25.4921 31.0845 25.413 31.1361C25.3754 31.1607 25.3442 31.194 25.3222 31.2332C25.3001 31.2724 25.2878 31.3164 25.2864 31.3613C25.2864 31.4622 25.3346 31.5373 25.4018 31.5799C25.4816 31.6293 25.5476 31.698 25.594 31.7796C25.6403 31.8612 25.6654 31.9531 25.6669 32.0469C25.6685 32.1408 25.6465 32.2335 25.6029 32.3166C25.5593 32.3997 25.4956 32.4705 25.4175 32.5225C25.3762 32.551 25.3426 32.5892 25.3197 32.6338C25.2968 32.6784 25.2854 32.728 25.2864 32.7781C25.2931 32.9104 25.4153 33.0426 25.589 33.0426ZM14.0196 19.2763C13.6182 19.1199 13.2385 18.9128 12.8898 18.6599V23.6275C12.8913 23.6492 12.8943 23.6626 12.8987 23.6678C12.9061 23.6766 12.9148 23.6841 12.9245 23.6903C12.9353 23.6946 12.9466 23.6972 12.9581 23.6981C12.9634 23.6981 12.9708 23.6962 12.9806 23.6925L15.7636 21.2894C15.3319 21.1198 14.9476 20.8481 14.6439 20.4975C14.3401 20.1469 14.1259 19.7279 14.0196 19.2763ZM9.99798 11.8698C9.99798 12.5938 10.5853 13.1812 11.3094 13.1812L11.8507 13.1789L11.9796 15.1415C12.1102 16.0697 12.571 16.9196 13.2776 17.5354C13.9842 18.1512 14.8891 18.4915 15.8264 18.494H17.956C18.8934 18.4927 19.7989 18.153 20.5057 17.5372C21.2125 16.9214 21.6731 16.0711 21.8028 15.1427L21.9227 13.217L22.4047 13.1767C22.6561 13.1555 22.896 13.0623 23.0958 12.9082C23.2955 12.7541 23.4465 12.5456 23.5308 12.3078C23.615 12.07 23.6289 11.8129 23.5707 11.5674C23.5125 11.322 23.3847 11.0985 23.2027 10.9238C23.1666 10.8993 23.1335 10.8707 23.1041 10.8386C22.9458 10.7155 22.762 10.6293 22.5661 10.5864L22.0931 10.4866L22.1233 9.99347C21.7496 10.0831 21.3563 10.042 21.0092 9.8769L20.989 9.90604C20.9392 9.97001 20.8661 10.0117 20.7857 10.022C20.7053 10.0323 20.6241 10.0103 20.5597 9.96096H20.5586L20.7357 9.73231L20.5586 9.95984L20.5564 9.95872L20.5373 9.94527L20.4521 9.89035C19.9767 9.61307 19.4239 9.49818 18.8774 9.56306C18.807 9.57134 18.736 9.55506 18.6763 9.51699C18.6166 9.47892 18.5719 9.42139 18.5498 9.35414C18.5276 9.28689 18.5294 9.21406 18.5548 9.14796C18.5801 9.08186 18.6276 9.02657 18.689 8.99143C18.073 8.85504 17.4438 8.78664 16.8127 8.78743C16.1257 8.78743 15.5014 8.86702 14.9443 8.98919C15.0067 9.0236 15.0552 9.07865 15.0815 9.14491C15.1078 9.21117 15.1102 9.2845 15.0884 9.35235C15.0665 9.4202 15.0217 9.47832 14.9617 9.51677C14.9017 9.55521 14.8301 9.57158 14.7594 9.56306C14.2128 9.499 13.6603 9.61384 13.1846 9.89035L13.0994 9.94527L13.0803 9.95872L13.0781 9.96096C13.0435 9.98762 13.0036 10.0066 12.9611 10.0166C12.9186 10.0267 12.8745 10.0275 12.8316 10.0191C12.7888 10.0108 12.7482 9.99334 12.7126 9.96804C12.677 9.94274 12.6472 9.91014 12.6253 9.87242C12.3114 10.0237 11.9696 10.0697 11.6434 10.0204L11.6748 10.5046L11.148 10.5685C10.9666 10.592 10.7919 10.6522 10.6346 10.7456C10.5672 10.8626 10.4597 10.9514 10.332 10.9955C10.1246 11.2275 9.99798 11.5335 9.99798 11.8698ZM12.5984 9.62135L12.4908 9.42632L12.5995 9.6191L12.5984 9.62135ZM15.8264 19.6148C15.6695 19.6148 15.5141 19.6074 15.3601 19.5924C15.5189 19.8294 15.7333 20.0239 15.9847 20.1588C16.236 20.2937 16.5166 20.3649 16.8019 20.3663C17.0872 20.3676 17.3684 20.299 17.621 20.1664C17.8736 20.0339 18.0898 19.8414 18.2508 19.6059C18.1526 19.6115 18.0543 19.6144 17.956 19.6148H15.8264ZM17.8607 21.2883L20.6461 23.6925L20.6673 23.6981C20.6789 23.6972 20.6902 23.6946 20.701 23.6903C20.7107 23.6841 20.7194 23.6766 20.7268 23.6678C20.7322 23.6551 20.7353 23.6414 20.7357 23.6275V18.772C20.38 19.0111 19.9971 19.2016 19.5869 19.3436C19.4709 19.78 19.2544 20.1832 18.9547 20.5209C18.655 20.8586 18.2803 21.1214 17.8607 21.2883ZM20.7335 7.01201C19.5104 6.44315 18.1779 6.14841 16.829 6.14841C15.4801 6.14841 14.1476 6.44315 12.9245 7.01201L12.92 7.01425C12.3477 7.27844 11.8153 7.62179 11.3385 8.03422L11.4641 8.19114C11.6434 8.41083 11.9527 8.46799 12.1904 8.33573L12.1926 8.33461C13.6162 7.55682 15.213 7.15086 16.8352 7.15436C18.9625 7.15436 20.5687 7.83247 21.4777 8.33461H21.48C21.5956 8.39936 21.7304 8.42104 21.8605 8.3958C21.9906 8.37056 22.1076 8.30004 22.1906 8.19675L22.1928 8.19338L22.3206 8.03534C21.839 7.62578 21.3053 7.28169 20.7335 7.01201ZM15.3556 28.8506C15.3556 28.0548 14.7055 27.4047 13.9097 27.4047H12.2845C11.4887 27.4047 10.8386 28.0548 10.8386 28.8506C10.8386 29.6464 11.4887 30.2965 12.2845 30.2965H13.9097C14.7168 30.2965 15.3556 29.6577 15.3556 28.8506Z" fill="white"/>
</svg>
