<svg width="37" height="37" viewBox="0 0 37 37" fill="none" xmlns="http://www.w3.org/2000/svg">
<path d="M7.36915 12.2817C8.23149 12.2817 9.07863 12.0547 9.82543 11.6235C10.5722 11.1924 11.1924 10.5722 11.6236 9.82539H29.4763C30.1278 9.82539 30.7526 9.56659 31.2132 9.10594C31.6739 8.64528 31.9327 8.0205 31.9327 7.36903C31.9327 6.71757 31.6739 6.09278 31.2132 5.63213C30.7526 5.17147 30.1278 4.91268 29.4763 4.91268H11.6236C11.1924 4.16591 10.5722 3.5458 9.8254 3.11466C9.0786 2.68352 8.23147 2.45654 7.36915 2.45654C6.50683 2.45654 5.6597 2.68352 4.9129 3.11466C4.1661 3.5458 3.54594 4.16591 3.11475 4.91268H7.36915V9.82539H3.11475C3.54592 10.5722 4.16607 11.1924 4.91287 11.6235C5.65967 12.0547 6.50681 12.2817 7.36915 12.2817ZM5.27142 22.9767C5.04183 23.2069 4.91287 23.5187 4.9128 23.8438V33.1607C4.9128 33.4865 5.04219 33.7989 5.27252 34.0292C5.50285 34.2595 5.81524 34.3889 6.14097 34.3889H9.8255C10.1512 34.3889 10.4636 34.2595 10.694 34.0292C10.9243 33.7989 11.0537 33.4865 11.0537 33.1607V31.9326H25.7918V33.1607C25.7918 33.4865 25.9212 33.7989 26.1515 34.0292C26.3819 34.2595 26.6942 34.3889 27.02 34.3889H30.7045C31.0302 34.3889 31.3426 34.2595 31.573 34.0292C31.8033 33.7989 31.9327 33.4865 31.9327 33.1607V23.8438C31.9326 23.5187 31.8036 23.2069 31.5741 22.9767L29.4763 20.879L26.1504 15.335C26.0411 15.1526 25.8863 15.0016 25.7012 14.897C25.516 14.7924 25.3069 14.7376 25.0942 14.7381H11.7513C11.539 14.738 11.3304 14.793 11.1457 14.8976C10.961 15.0022 10.8066 15.1529 10.6975 15.335L7.36915 20.879L5.27142 22.9767ZM27.3491 22.1072H9.49635L12.444 17.1944H24.4015L27.3491 22.1072ZM13.51 26.5974V27.5111C13.51 27.7066 13.4324 27.894 13.2942 28.0322C13.156 28.1704 12.9686 28.248 12.7731 28.248H8.10606C7.91062 28.248 7.72318 28.1704 7.58498 28.0322C7.44679 27.894 7.36915 27.7066 7.36915 27.5111V25.4625C7.3692 25.3535 7.39345 25.2458 7.44014 25.1473C7.48683 25.0488 7.5548 24.9618 7.63916 24.8928C7.72352 24.8237 7.82215 24.7742 7.92795 24.7478C8.03375 24.7215 8.14408 24.7189 8.25098 24.7404L12.7215 25.6345C12.9439 25.6793 13.144 25.7997 13.2877 25.9752C13.4314 26.1507 13.51 26.3705 13.51 26.5974ZM29.4763 25.7622V27.5111C29.4763 27.7066 29.3987 27.894 29.2605 28.0322C29.1223 28.1704 28.9349 28.248 28.7394 28.248H24.0724C23.8769 28.248 23.6895 28.1704 23.5513 28.0322C23.4131 27.894 23.3354 27.7066 23.3354 27.5111V26.3959C23.3355 26.2257 23.3945 26.0608 23.5024 25.9291C23.6104 25.7975 23.7605 25.7073 23.9274 25.6738L28.2997 24.7993C28.4423 24.7706 28.5895 24.7739 28.7307 24.809C28.8719 24.844 29.0035 24.91 29.1161 25.0021C29.2286 25.0943 29.3193 25.2102 29.3816 25.3417C29.4439 25.4731 29.4763 25.6167 29.4763 25.7622Z" fill="white"/>
</svg>
