<svg width="37" height="37" viewBox="0 0 37 37" fill="none" xmlns="http://www.w3.org/2000/svg">
<path d="M5.07312 1.30463L5.07241 1.30534C4.60537 1.29824 4.06095 1.36141 3.54493 1.4764C2.95509 1.607 2.39648 1.80929 2.03307 2.013C1.85065 2.11521 1.71934 2.21884 1.66113 2.28273L3.49667 8.70922C4.00914 8.06331 4.59046 7.53096 5.18243 7.13347C5.87023 6.67637 6.54453 6.37612 7.16206 6.24836C7.16206 5.31569 7.14076 4.40857 7.03429 3.63915C6.89943 2.71286 6.63681 2.00449 6.21803 1.58713C6.12575 1.4913 5.77227 1.34296 5.26761 1.31172C5.20444 1.31172 5.13914 1.30463 5.07312 1.30463ZM7.13366 7.84327C6.6581 7.87166 6.12575 8.0917 5.63599 8.46079C4.66499 9.19188 3.92964 10.4979 3.90835 11.3142L7.15496 28.3706C7.6944 27.6963 8.51777 27.2562 9.4405 27.2562C10.2568 27.2562 11.0021 27.604 11.5344 28.1576C11.8964 28.0796 12.2797 28.0015 12.6985 27.9234C12.8049 27.9021 12.9185 27.8879 13.0321 27.8666C12.0738 21.301 10.5265 13.6991 8.4042 8.32593C8.0351 7.98523 7.67311 7.85037 7.29692 7.84327H7.13366ZM27.2209 10.647L23.4164 22.529L24.6372 22.9122L26.3408 17.5817L34.6525 20.2434L35.0358 19.0226L26.7311 16.3679L28.4418 11.0303L27.2209 10.647ZM24.474 28.0583C22.9479 28.0654 21.1876 28.1576 19.4344 28.3209C17.0921 28.5267 14.7498 28.8461 12.9327 29.1798C12.6843 29.2223 12.45 29.272 12.2229 29.3146C12.3081 29.5843 12.3507 29.8683 12.3507 30.1664C12.3507 31.7634 11.0375 33.0765 9.4405 33.0765C9.04302 33.0765 8.65973 32.9914 8.31192 32.8494C8.09189 33.4811 7.92864 34.0986 7.83636 34.5671H28.2501C28.605 34.5671 28.7966 34.4393 29.0096 34.1128C29.2296 33.7792 29.3929 33.2327 29.4568 32.5868C29.5916 31.302 29.3077 29.6624 28.8108 28.6758C28.8321 28.7113 28.6121 28.4983 28.0869 28.3635C27.5616 28.2286 26.8021 28.1293 25.9078 28.0867C25.4606 28.0654 24.9779 28.0583 24.474 28.0583ZM9.4405 28.5338C8.53196 28.5338 7.80797 29.2578 7.80797 30.1664C7.80797 31.0749 8.53196 31.7989 9.4405 31.7989C10.349 31.7989 11.073 31.0749 11.073 30.1664C11.073 29.2578 10.349 28.5338 9.4405 28.5338Z" fill="white"/>
</svg>
