<svg width="34" height="34" viewBox="0 0 34 34" fill="none" xmlns="http://www.w3.org/2000/svg">
<path d="M29.0169 18.3765L27.106 12.6435C26.8287 11.8088 26.2955 11.0827 25.5821 10.5684C24.8686 10.0541 24.0112 9.77765 23.1317 9.77843H10.3946C9.51508 9.77765 8.65768 10.0541 7.94423 10.5684C7.23078 11.0827 6.69757 11.8088 6.42035 12.6435L4.50936 18.3765C4.0012 18.5891 3.56723 18.9472 3.26201 19.4058C2.95679 19.8644 2.79394 20.4029 2.79395 20.9538V25.1446C2.79395 26.1755 3.3583 27.0667 4.19087 27.5515V29.3353C4.19087 29.7058 4.33804 30.0611 4.60002 30.3231C4.86199 30.5851 5.2173 30.7322 5.58779 30.7322H6.98471C7.3552 30.7322 7.71051 30.5851 7.97248 30.3231C8.23445 30.0611 8.38163 29.7058 8.38163 29.3353V27.9384H25.1447V29.3353C25.1447 29.7058 25.2919 30.0611 25.5538 30.3231C25.8158 30.5851 26.1711 30.7322 26.5416 30.7322H27.9385C28.309 30.7322 28.6643 30.5851 28.9263 30.3231C29.1883 30.0611 29.3354 29.7058 29.3354 29.3353V27.5515C29.7593 27.3084 30.1115 26.958 30.3568 26.5354C30.602 26.1128 30.7316 25.6331 30.7324 25.1446V20.9538C30.7324 19.793 30.0241 18.7997 29.0169 18.3765ZM10.3946 12.5723H23.1303C23.4236 12.5722 23.7095 12.6645 23.9475 12.836C24.1854 13.0075 24.3633 13.2495 24.456 13.5278L26.001 18.16H7.52532L9.06892 13.5278C9.26029 12.9564 9.79392 12.5723 10.3946 12.5723ZM7.68317 25.1446C7.40791 25.1445 7.13536 25.0902 6.88109 24.9847C6.62681 24.8793 6.3958 24.7248 6.20122 24.5301C5.80826 24.1369 5.5876 23.6037 5.58779 23.0478C5.58797 22.4919 5.80899 21.9588 6.20221 21.5658C6.59543 21.1729 7.12865 20.9522 7.68457 20.9524C8.24048 20.9526 8.77355 21.1736 9.16651 21.5668C9.55947 21.96 9.78013 22.4933 9.77995 23.0492C9.77976 23.6051 9.55875 24.1382 9.16553 24.5311C8.7723 24.9241 8.23908 25.1447 7.68317 25.1446ZM25.8431 25.1446C25.2872 25.1444 24.7542 24.9234 24.3612 24.5301C23.9682 24.1369 23.7476 23.6037 23.7478 23.0478C23.7479 22.4919 23.969 21.9588 24.3622 21.5658C24.7554 21.1729 25.2886 20.9522 25.8445 20.9524C26.4005 20.9526 26.9335 21.1736 27.3265 21.5668C27.7194 21.96 27.9401 22.4933 27.9399 23.0492C27.9397 23.6051 27.7187 24.1382 27.3255 24.5311C26.9323 24.9241 26.3991 25.1447 25.8431 25.1446ZM12.5724 6.1157C12.5794 4.59585 11.1238 3.25062 10.6349 2.84132C10.5904 2.80353 10.534 2.78278 10.4756 2.78278C10.4173 2.78278 10.3608 2.80353 10.3164 2.84132C9.82465 3.24783 8.37465 4.56931 8.38163 6.11431C8.38163 7.36455 9.32176 8.38151 10.477 8.38151C11.6323 8.38151 12.5724 7.36455 12.5724 6.1157ZM18.8585 6.1157C18.8655 4.59585 17.4099 3.24922 16.921 2.84132C16.8766 2.80353 16.8201 2.78278 16.7618 2.78278C16.7034 2.78278 16.647 2.80353 16.6025 2.84132C16.1094 3.24783 14.6594 4.57071 14.6664 6.1157C14.6678 7.36455 15.6079 8.38151 16.7632 8.38151C17.9184 8.38151 18.8585 7.36455 18.8585 6.1157ZM25.1447 6.1157C25.1517 4.59585 23.6961 3.24922 23.2072 2.84132C23.1627 2.80353 23.1063 2.78278 23.0479 2.78278C22.9896 2.78278 22.9331 2.80353 22.8887 2.84132C22.3969 3.24783 20.9469 4.56931 20.9539 6.11431C20.9539 7.36455 21.894 8.38151 23.0493 8.38151C24.2046 8.38151 25.1447 7.36455 25.1447 6.1157Z" fill="white"/>
</svg>
